<mxfile host="65bd71144e">
    <diagram id="u6mARD2z6hc0mRG2zNkf" name="Page-1">
        <mxGraphModel dx="1129" dy="519" grid="1" gridSize="10" guides="1" tooltips="1" connect="1" arrows="1" fold="1" page="1" pageScale="1" pageWidth="850" pageHeight="1100" math="0" shadow="0">
            <root>
                <mxCell id="0"/>
                <mxCell id="1" parent="0"/>
                <mxCell id="2" value="EcuaFauna 2K24A" style="shape=umlFrame;whiteSpace=wrap;html=1;width=150;height=60;boundedLbl=1;verticalAlign=middle;align=left;spacingLeft=5;hachureGap=4;fontFamily=Helvetica;fontSize=20;fontStyle=0" parent="1" vertex="1">
                    <mxGeometry x="150" y="170" width="520" height="425" as="geometry"/>
                </mxCell>
                <mxCell id="3" style="edgeStyle=none;hachureGap=4;html=1;fontFamily=Helvetica;fontSize=16;" parent="1" source="6" target="11" edge="1">
                    <mxGeometry relative="1" as="geometry">
                        <Array as="points"/>
                    </mxGeometry>
                </mxCell>
                <mxCell id="29" style="edgeStyle=none;html=1;entryX=1;entryY=0.5;entryDx=0;entryDy=0;" edge="1" parent="1" source="6" target="28">
                    <mxGeometry relative="1" as="geometry"/>
                </mxCell>
                <mxCell id="6" value="Sistema" style="shape=umlActor;verticalLabelPosition=bottom;verticalAlign=top;html=1;hachureGap=4;fontFamily=Helvetica;fontSize=20;" parent="1" vertex="1">
                    <mxGeometry x="760" y="290" width="30" height="60" as="geometry"/>
                </mxCell>
                <mxCell id="8" style="edgeStyle=none;hachureGap=4;html=1;entryX=0;entryY=0.5;entryDx=0;entryDy=0;fontFamily=Helvetica;fontSize=16;" parent="1" source="9" target="10" edge="1">
                    <mxGeometry relative="1" as="geometry"/>
                </mxCell>
                <mxCell id="9" value="Usuario" style="shape=umlActor;verticalLabelPosition=bottom;verticalAlign=top;html=1;hachureGap=4;fontFamily=Helvetica;fontSize=20;" parent="1" vertex="1">
                    <mxGeometry x="40" y="290" width="30" height="60" as="geometry"/>
                </mxCell>
                <mxCell id="10" value="Crear Hormigas larvas" style="ellipse;whiteSpace=wrap;html=1;hachureGap=4;fontFamily=Helvetica;fontSize=20;" parent="1" vertex="1">
                    <mxGeometry x="170" y="275" width="170" height="90" as="geometry"/>
                </mxCell>
                <mxCell id="11" value="Evolucionar Hormigas segun el alimento" style="ellipse;whiteSpace=wrap;html=1;hachureGap=4;fontFamily=Helvetica;fontSize=20;" parent="1" vertex="1">
                    <mxGeometry x="425" y="275" width="170" height="100" as="geometry"/>
                </mxCell>
                <mxCell id="12" value="&amp;lt;&amp;lt;include&amp;gt;&amp;gt;" style="endArrow=open;endSize=12;dashed=1;html=1;hachureGap=4;fontFamily=Helvetica;fontSize=16;entryX=0;entryY=0.5;entryDx=0;entryDy=0;exitX=1;exitY=0.5;exitDx=0;exitDy=0;" parent="1" source="10" target="11" edge="1">
                    <mxGeometry x="0.0391" y="22" width="160" relative="1" as="geometry">
                        <mxPoint x="220" y="370" as="sourcePoint"/>
                        <mxPoint x="610" y="420" as="targetPoint"/>
                        <mxPoint x="-1" as="offset"/>
                        <Array as="points"/>
                    </mxGeometry>
                </mxCell>
                <mxCell id="26" value="Eliminar Hormigas" style="ellipse;whiteSpace=wrap;html=1;hachureGap=4;fontFamily=Helvetica;fontSize=20;" parent="1" vertex="1">
                    <mxGeometry x="230" y="440" width="170" height="90" as="geometry"/>
                </mxCell>
                <mxCell id="27" value="&amp;lt;&amp;lt;extends&amp;gt;&amp;gt;" style="edgeStyle=none;html=1;dashed=1;endArrow=open;endFill=0;exitX=0.462;exitY=0.022;exitDx=0;exitDy=0;exitPerimeter=0;" edge="1" parent="1" source="26">
                    <mxGeometry x="-0.0136" relative="1" as="geometry">
                        <mxPoint as="offset"/>
                        <mxPoint x="306.7766489932437" y="414.44386163550274" as="sourcePoint"/>
                        <mxPoint x="249.99647427574928" y="365.0019068530111" as="targetPoint"/>
                    </mxGeometry>
                </mxCell>
                <mxCell id="28" value="&amp;nbsp;Gruardar Hormigas" style="ellipse;whiteSpace=wrap;html=1;hachureGap=4;fontFamily=Helvetica;fontSize=20;" vertex="1" parent="1">
                    <mxGeometry x="425" y="440" width="170" height="90" as="geometry"/>
                </mxCell>
            </root>
        </mxGraphModel>
    </diagram>
</mxfile>